<?xml version="1.0" encoding="UTF-8"?>
<svg version="1.1" xmlns="http://www.w3.org/2000/svg" width="512" height="512">
<path d="M0 0 C1.33611328 1.10988281 1.33611328 1.10988281 2.69921875 2.2421875 C8.90428353 7.58253421 14.03972575 13.50129482 19 20 C19.58265625 20.74378906 20.1653125 21.48757812 20.765625 22.25390625 C41.30162936 49.84316445 48.87809406 84.74088842 43.9375 118.5625 C40.03248881 141.66735177 30.16582087 163.17650312 15 181 C14.26007813 181.89074219 13.52015625 182.78148437 12.7578125 183.69921875 C7.41746579 189.90428353 1.49870518 195.03972575 -5 200 C-5.74378906 200.58265625 -6.48757813 201.1653125 -7.25390625 201.765625 C-23.39111933 213.77732448 -43.03841497 222.20028771 -63 225 C-63.69738281 225.10957031 -64.39476562 225.21914063 -65.11328125 225.33203125 C-97.94130071 229.58436538 -133.40751134 221.39238535 -159.8125 201.0625 C-161.90254813 199.40453823 -163.95095144 197.70976672 -166 196 C-167.34384766 194.88625 -167.34384766 194.88625 -168.71484375 193.75 C-174.90849827 188.40570642 -180.04307004 182.49432365 -185 176 C-185.58265625 175.25621094 -186.1653125 174.51242187 -186.765625 173.74609375 C-207.30162936 146.15683555 -214.87809406 111.25911158 -209.9375 77.4375 C-206.03248881 54.33264823 -196.16582087 32.82349688 -181 15 C-180.26007813 14.10925781 -179.52015625 13.21851563 -178.7578125 12.30078125 C-173.41811221 6.09646757 -167.50053643 0.95677528 -161 -4 C-159.84951172 -4.89138672 -159.84951172 -4.89138672 -158.67578125 -5.80078125 C-111.55323478 -40.60266192 -44.44502335 -37.81779004 0 0 Z M-152 30 C-152.65355469 30.58136719 -153.30710937 31.16273438 -153.98046875 31.76171875 C-170.2642338 46.55497899 -178.93854485 71.54689316 -180.23828125 92.91796875 C-180.70652422 110.8119892 -177.1572494 127.07878137 -169 143 C-168.47664063 144.05574219 -167.95328125 145.11148438 -167.4140625 146.19921875 C-162.88052653 154.65813343 -156.74008844 161.27550846 -150 168 C-149.17371094 168.83789062 -148.34742188 169.67578125 -147.49609375 170.5390625 C-141.07033666 176.70016732 -133.87961558 181.00424737 -126 185 C-124.90945312 185.55816406 -123.81890625 186.11632812 -122.6953125 186.69140625 C-100.62412677 197.05188049 -74.78912375 198.07137659 -51.75488281 190.23632812 C-47.02185725 188.44614975 -42.50048984 186.30582966 -38 184 C-36.94425781 183.47664062 -35.88851562 182.95328125 -34.80078125 182.4140625 C-26.34186657 177.88052653 -19.72449154 171.74008844 -13 165 C-11.74316406 163.76056641 -11.74316406 163.76056641 -10.4609375 162.49609375 C-4.29983268 156.07033666 0.00424737 148.87961558 4 141 C4.55816406 139.90945313 5.11632812 138.81890625 5.69140625 137.6953125 C16.05188049 115.62412677 17.07137659 89.78912375 9.23632812 66.75488281 C7.44614975 62.02185725 5.30582966 57.50048984 3 53 C2.47664062 51.94425781 1.95328125 50.88851562 1.4140625 49.80078125 C-3.11636653 41.34766367 -9.25287117 34.7115474 -16 28 C-16.83789062 27.16210938 -17.67578125 26.32421875 -18.5390625 25.4609375 C-36.32968713 8.59751155 -60.84823973 0.24671056 -85.19921875 0.52514648 C-111.29657482 1.56180422 -133.61929917 11.84243363 -152 30 Z " fill="#000000" transform="translate(339,158)"/>
<path d="M0 0 C1.07314453 -0.07347656 1.07314453 -0.07347656 2.16796875 -0.1484375 C9.80859389 1.36388712 15.63413297 7.74062333 20.92578125 13.0546875 C22.03012764 14.15117111 22.03012764 14.15117111 23.15678406 15.26980591 C24.70081422 16.80744964 26.2410339 18.34892834 27.77758789 19.89404297 C30.1235143 22.24850889 32.4875534 24.58365738 34.85351562 26.91796875 C36.35790196 28.42074351 37.86119544 29.92461326 39.36328125 31.4296875 C40.41797356 32.46752884 40.41797356 32.46752884 41.49397278 33.52633667 C46.45857021 38.56207458 49.42721467 42.71478933 50.1875 49.9375 C49.60539319 55.27347912 47.83422701 58.69600068 43.8125 62.1875 C39.38081489 65.41893706 36.22548966 65.81868768 30.8125 65.375 C24.05016824 63.04607891 19.40713178 58.54314546 14.48046875 53.5390625 C13.72204178 52.78209076 12.96361481 52.02511902 12.1822052 51.24520874 C10.59001649 49.65136805 9.00273845 48.05260813 7.42016602 46.44921875 C5.00217422 44.00220032 2.56598765 41.57446318 0.12695312 39.1484375 C-1.42299136 37.59225692 -2.97185722 36.03500114 -4.51953125 34.4765625 C-5.24453323 33.75449615 -5.96953522 33.03242981 -6.71650696 32.28848267 C-10.88490125 28.04172118 -14.55185364 24.11409622 -15.5859375 18.03125 C-15.53219987 13.08738781 -15.03321167 9.59450352 -12.1875 5.375 C-8.34445471 1.82018311 -5.21877043 0.24015581 0 0 Z " fill="#000000" transform="translate(392.1875,376.625)"/>
<path d="M0 0 C3.9323173 2.65202795 6.18648186 5.30944559 7.6875 9.8125 C7.9609375 11.79296875 7.9609375 11.79296875 8.0625 14 C8.11148438 14.71542969 8.16046875 15.43085938 8.2109375 16.16796875 C6.69861288 23.80859389 0.32187667 29.63413297 -4.9921875 34.92578125 C-6.08867111 36.03012764 -6.08867111 36.03012764 -7.20730591 37.15678406 C-8.74494964 38.70081422 -10.28642834 40.2410339 -11.83154297 41.77758789 C-14.18600889 44.1235143 -16.52115738 46.4875534 -18.85546875 48.85351562 C-20.35824351 50.35790196 -21.86211326 51.86119544 -23.3671875 53.36328125 C-24.40502884 54.41797356 -24.40502884 54.41797356 -25.46383667 55.49397278 C-30.49957458 60.45857021 -34.65228933 63.42721467 -41.875 64.1875 C-47.21097912 63.60539319 -50.63350068 61.83422701 -54.125 57.8125 C-57.35643706 53.38081489 -57.75618768 50.22548966 -57.3125 44.8125 C-54.98357891 38.05016824 -50.48064546 33.40713178 -45.4765625 28.48046875 C-44.71959076 27.72204178 -43.96261902 26.96361481 -43.18270874 26.1822052 C-41.58886805 24.59001649 -39.99010813 23.00273845 -38.38671875 21.42016602 C-35.93970032 19.00217422 -33.51196318 16.56598765 -31.0859375 14.12695312 C-29.52975692 12.57700864 -27.97250114 11.02814278 -26.4140625 9.48046875 C-25.33096298 8.39296577 -25.33096298 8.39296577 -24.22598267 7.28349304 C-16.92466824 0.1169127 -10.11065708 -3.62457518 0 0 Z " fill="#000000" transform="translate(127.3125,378.1875)"/>
<path d="M0 0 C4.28590933 2.79515826 7.22425239 5.92275717 8.875 10.875 C9.55193373 17.77972403 7.54265942 22.62644396 3.20123291 27.91323853 C1.19499037 30.06454445 -0.86475341 32.14327797 -2.9609375 34.20703125 C-3.71790924 34.96545822 -4.47488098 35.72388519 -5.25479126 36.5052948 C-6.84863195 38.09748351 -8.44739187 39.68476155 -10.05078125 41.26733398 C-12.49779968 43.68532578 -14.92553682 46.12151235 -17.3515625 48.56054688 C-18.90774308 50.11049136 -20.46499886 51.65935722 -22.0234375 53.20703125 C-22.74550385 53.93203323 -23.46757019 54.65703522 -24.21151733 55.40400696 C-28.45827882 59.57240125 -32.38590378 63.23935364 -38.46875 64.2734375 C-43.41261219 64.21969987 -46.90549648 63.72071167 -51.125 60.875 C-54.67981689 57.03195471 -56.25984419 53.90627043 -56.5 48.6875 C-56.54898437 47.97207031 -56.59796875 47.25664063 -56.6484375 46.51953125 C-55.13611288 38.87890611 -48.75937667 33.05336703 -43.4453125 27.76171875 C-42.71432343 27.02548782 -41.98333435 26.2892569 -41.23019409 25.53071594 C-39.69255036 23.98668578 -38.15107166 22.4464661 -36.60595703 20.90991211 C-34.25149111 18.5639857 -31.91634262 16.1999466 -29.58203125 13.83398438 C-28.07925649 12.32959804 -26.57538674 10.82630456 -25.0703125 9.32421875 C-24.03247116 8.26952644 -24.03247116 8.26952644 -22.97366333 7.19352722 C-16.32935304 0.64308191 -9.53605893 -3.43298121 0 0 Z " fill="#000000" transform="translate(433.125,71.125)"/>
<path d="M0 0 C5.0018817 2.61421887 8.68358441 6.31346249 12.61450195 10.30615234 C13.37292892 11.06312408 14.1313559 11.82009583 14.9127655 12.6000061 C16.50495421 14.19384679 18.09223226 15.79260671 19.67480469 17.39599609 C22.09279648 19.84301452 24.52898306 22.27075166 26.96801758 24.69677734 C28.51796206 26.25295792 30.06682792 27.8102137 31.61450195 29.36865234 C32.70200493 30.45175186 32.70200493 30.45175186 33.81147766 31.55673218 C37.97987196 35.80349367 41.64682435 39.73111863 42.6809082 45.81396484 C42.62717057 50.75782703 42.12818238 54.25071133 39.2824707 58.47021484 C35.43942542 62.02503174 32.31374114 63.60505904 27.0949707 63.84521484 C26.37954102 63.89419922 25.66411133 63.94318359 24.92700195 63.99365234 C17.28637681 62.48132772 11.46083773 56.10459151 6.16918945 50.79052734 C5.43295853 50.05953827 4.6967276 49.32854919 3.93818665 48.57540894 C2.39415648 47.03776521 0.8539368 45.4962865 -0.68261719 43.95117188 C-3.02854359 41.59670595 -5.3925827 39.26155747 -7.75854492 36.92724609 C-9.26293126 35.42447134 -10.76622474 33.92060158 -12.26831055 32.41552734 C-13.32300285 31.377686 -13.32300285 31.377686 -14.39900208 30.31887817 C-19.36359951 25.28314026 -22.33224396 21.13042551 -23.0925293 13.90771484 C-22.51042248 8.57173572 -20.73925631 5.14921416 -16.7175293 1.65771484 C-11.4254425 -2.20109844 -5.97397443 -2.84676361 0 0 Z " fill="#000000" transform="translate(92.717529296875,71.52978515625)"/>
<path d="M0 0 C3.46573176 2.97062723 5.38599566 5.49992609 6.01268005 10.08872986 C6.01808304 11.12542313 6.02348602 12.16211639 6.02905273 13.23022461 C6.04173691 14.41172592 6.05442108 15.59322723 6.06748962 16.81053162 C6.06455399 18.07832962 6.06161835 19.34612762 6.05859375 20.65234375 C6.0638356 21.96280167 6.06907745 23.27325958 6.07447815 24.62342834 C6.08339583 27.39317473 6.08100198 30.16263258 6.07104492 32.93237305 C6.05955944 36.47102088 6.07976528 40.00867015 6.10896206 43.54718685 C6.13178663 46.93645777 6.12485479 50.32549791 6.12109375 53.71484375 C6.13232773 54.98061752 6.14356171 56.2463913 6.15513611 57.55052185 C6.06852648 68.48783466 6.06852648 68.48783466 1.625 73.25 C-3.59759857 77.30630398 -9.02840142 77.02397544 -15.375 76.25 C-19.98902006 74.06441155 -22.10854701 71.75552466 -24.375 67.25 C-24.76268005 64.41127014 -24.76268005 64.41127014 -24.77905273 61.26977539 C-24.79173691 60.08827408 -24.80442108 58.90677277 -24.81748962 57.68946838 C-24.81455399 56.42167038 -24.81161835 55.15387238 -24.80859375 53.84765625 C-24.8138356 52.53719833 -24.81907745 51.22674042 -24.82447815 49.87657166 C-24.83339583 47.10682527 -24.83100198 44.33736742 -24.82104492 41.56762695 C-24.80955944 38.02897912 -24.82976528 34.49132985 -24.85896206 30.95281315 C-24.88178663 27.56354223 -24.87485479 24.17450209 -24.87109375 20.78515625 C-24.88232773 19.51938248 -24.89356171 18.2536087 -24.90513611 16.94947815 C-24.81878514 6.04482958 -24.81878514 6.04482958 -20.375 1.25 C-14.00404984 -3.97499767 -7.04907965 -3.65507834 0 0 Z " fill="#000000" transform="translate(265.375,435.75)"/>
<path d="M0 0 C1.18150131 -0.01268417 2.36300262 -0.02536835 3.58030701 -0.03843689 C4.84810501 -0.03550125 6.11590302 -0.03256561 7.42211914 -0.02954102 C8.73257706 -0.03478287 10.04303497 -0.04002472 11.39320374 -0.04542542 C14.16295012 -0.05434309 16.93240797 -0.05194925 19.70214844 -0.04199219 C23.24079627 -0.0305067 26.77844555 -0.05071255 30.31696224 -0.07990932 C33.70623316 -0.1027339 37.0952733 -0.09580205 40.48461914 -0.09204102 C41.75039291 -0.10327499 43.01616669 -0.11450897 44.32029724 -0.12608337 C55.25761005 -0.03947375 55.25761005 -0.03947375 60.01977539 4.40405273 C64.07607937 9.62665131 63.79375083 15.05745416 63.01977539 21.40405273 C60.83418694 26.01807279 58.52530005 28.13759975 54.01977539 30.40405273 C51.18104553 30.79173279 51.18104553 30.79173279 48.03955078 30.80810547 C46.85804947 30.82078964 45.67654816 30.83347382 44.45924377 30.84654236 C43.19144577 30.84360672 41.92364777 30.84067108 40.61743164 30.83764648 C39.30697372 30.84288834 37.99651581 30.84813019 36.64634705 30.85353088 C33.87660066 30.86244856 31.10714281 30.86005471 28.33740234 30.85009766 C24.79875451 30.83861217 21.26110524 30.85881802 17.72258854 30.88801479 C14.33331762 30.91083937 10.94427748 30.90390752 7.55493164 30.90014648 C5.65627098 30.91699745 5.65627098 30.91699745 3.71925354 30.93418884 C-7.18539503 30.84783788 -7.18539503 30.84783788 -11.98022461 26.40405273 C-15.09540202 22.60565103 -16.31806932 18.66544084 -15.98022461 13.77905273 C-15.08703501 8.59855308 -13.02873844 4.88500961 -8.71336365 1.76524353 C-5.56233834 0.19593199 -3.50636606 0.0182743 0 0 Z " fill="#000000" transform="translate(448.980224609375,240.595947265625)"/>
<path d="M0 0 C1.18150131 -0.01268417 2.36300262 -0.02536835 3.58030701 -0.03843689 C4.84810501 -0.03550125 6.11590302 -0.03256561 7.42211914 -0.02954102 C8.73257706 -0.03478287 10.04303497 -0.04002472 11.39320374 -0.04542542 C14.16295012 -0.05434309 16.93240797 -0.05194925 19.70214844 -0.04199219 C23.24079627 -0.0305067 26.77844555 -0.05071255 30.31696224 -0.07990932 C33.70623316 -0.1027339 37.0952733 -0.09580205 40.48461914 -0.09204102 C41.75039291 -0.10327499 43.01616669 -0.11450897 44.32029724 -0.12608337 C55.22494581 -0.03973241 55.22494581 -0.03973241 60.01977539 4.40405273 C63.13495281 8.20245444 64.3576201 12.14266463 64.01977539 17.02905273 C63.1265858 22.20955239 61.06828922 25.92309586 56.75291443 29.04286194 C53.60188912 30.61217348 51.54591684 30.78983117 48.03955078 30.80810547 C46.85804947 30.82078964 45.67654816 30.83347382 44.45924377 30.84654236 C43.19144577 30.84360672 41.92364777 30.84067108 40.61743164 30.83764648 C39.30697372 30.84288834 37.99651581 30.84813019 36.64634705 30.85353088 C33.87660066 30.86244856 31.10714281 30.86005471 28.33740234 30.85009766 C24.79875451 30.83861217 21.26110524 30.85881802 17.72258854 30.88801479 C14.33331762 30.91083937 10.94427748 30.90390752 7.55493164 30.90014648 C5.65627098 30.91699745 5.65627098 30.91699745 3.71925354 30.93418884 C-7.21805927 30.84757922 -7.21805927 30.84757922 -11.98022461 26.40405273 C-16.03652859 21.18145416 -15.75420005 15.75065131 -14.98022461 9.40405273 C-11.78705534 2.66291762 -7.35661448 0.03834082 0 0 Z " fill="#000000" transform="translate(14.980224609375,240.595947265625)"/>
<path d="M0 0 C4.61402006 2.18558845 6.73354701 4.49447534 9 9 C9.38768005 11.83872986 9.38768005 11.83872986 9.40405273 14.98022461 C9.41673691 16.16172592 9.42942108 17.34322723 9.44248962 18.56053162 C9.43955399 19.82832962 9.43661835 21.09612762 9.43359375 22.40234375 C9.4388356 23.71280167 9.44407745 25.02325958 9.44947815 26.37342834 C9.45839583 29.14317473 9.45600198 31.91263258 9.44604492 34.68237305 C9.43455944 38.22102088 9.45476528 41.75867015 9.48396206 45.29718685 C9.50678663 48.68645777 9.49985479 52.07549791 9.49609375 55.46484375 C9.50732773 56.73061752 9.51856171 57.9963913 9.53013611 59.30052185 C9.44378514 70.20517042 9.44378514 70.20517042 5 75 C1.2015983 78.11517742 -2.7386119 79.33784471 -7.625 79 C-12.80549965 78.1068104 -16.51904313 76.04851383 -19.6388092 71.73313904 C-21.20812075 68.58211373 -21.38577844 66.52614145 -21.40405273 63.01977539 C-21.41673691 61.83827408 -21.42942108 60.65677277 -21.44248962 59.43946838 C-21.43955399 58.17167038 -21.43661835 56.90387238 -21.43359375 55.59765625 C-21.4388356 54.28719833 -21.44407745 52.97674042 -21.44947815 51.62657166 C-21.45839583 48.85682527 -21.45600198 46.08736742 -21.44604492 43.31762695 C-21.43455944 39.77897912 -21.45476528 36.24132985 -21.48396206 32.70281315 C-21.50678663 29.31354223 -21.49985479 25.92450209 -21.49609375 22.53515625 C-21.50732773 21.26938248 -21.51856171 20.0036087 -21.53013611 18.69947815 C-21.44352648 7.76216534 -21.44352648 7.76216534 -17 3 C-11.77740143 -1.05630398 -6.34659858 -0.77397544 0 0 Z " fill="#000000" transform="translate(262,0)"/>
</svg>
