<?xml version="1.0" encoding="UTF-8"?>
<svg version="1.1" xmlns="http://www.w3.org/2000/svg" width="512" height="512">
<path d="M0 0 C6.58686067 3.46918184 11.57778146 9.7781461 16.37109375 15.32421875 C17.55542663 16.6811562 18.74305279 18.03522483 19.93359375 19.38671875 C20.57554687 20.12019531 21.2175 20.85367187 21.87890625 21.609375 C31.92362639 32.41393559 45.91175093 39.8339734 60.73828125 40.76171875 C77.56551055 41.37141254 92.30318723 37.36416339 105.12109375 26.01171875 C106.73846814 24.48391415 108.34323211 22.94262256 109.93359375 21.38671875 C110.64515625 20.70222656 111.35671875 20.01773437 112.08984375 19.3125 C115.40734492 16.06517674 118.54023761 12.72613818 121.55859375 9.19921875 C125.80921859 4.26927031 129.81642583 -0.25087542 136.640625 -0.8515625 C142.92065494 -1.00165127 147.09666095 -1.08744409 151.93359375 3.38671875 C156.79968166 8.52314488 158.03958941 13.97191994 158.86328125 20.859375 C159.01925781 22.08978516 159.17523438 23.32019531 159.3359375 24.58789062 C159.64762913 27.13423089 159.95501914 29.68110191 160.2578125 32.22851562 C162.62818448 50.75788686 168.30535263 66.1235226 182.93359375 78.38671875 C186.14472618 80.67194183 189.42408479 82.59821899 192.93359375 84.38671875 C193.69671875 84.77601562 194.45984375 85.1653125 195.24609375 85.56640625 C211.64446203 93.36701894 228.39359361 90.68471802 245.57958984 87.16577148 C261.86775236 83.84544671 261.86775236 83.84544671 269.93359375 88.38671875 C274.58876854 92.47762993 276.76244929 96.97026117 277.1953125 103.08203125 C277.1477995 107.58299356 275.58143338 111.00005772 273.43359375 114.88671875 C272.69906451 116.28767956 271.96469414 117.68872368 271.23046875 119.08984375 C270.85083984 119.79947266 270.47121094 120.50910156 270.08007812 121.24023438 C259.63320058 140.79920953 252.36651912 158.16559488 258.6875 180.4609375 C263.58470142 196.45330041 273.60406446 207.25641758 287.93359375 215.38671875 C293.6615471 218.25343365 299.49655971 220.88339972 305.34570312 223.4921875 C312.70753994 226.90266266 318.18347904 229.88648933 321.93359375 237.38671875 C322.61992073 244.80130038 322.65361167 250.45643982 317.93359375 256.38671875 C312.27687479 260.90309118 306.17797735 263.81596651 299.62109375 266.82421875 C280.77886222 275.49684141 266.59108078 285.39625706 258.80859375 305.2578125 C252.82531132 324.15693057 256.96927438 341.10662398 265.77490234 358.19921875 C268.45541911 363.25978138 271.27713549 368.23722828 274.1484375 373.19140625 C277.30913965 378.84885562 278.07977938 384.29111276 276.3203125 390.578125 C274.3860311 395.06872542 271.81932259 398.16395203 267.46484375 400.45581055 C256.96878361 404.31590674 243.63523642 400.13377443 233.10546875 398.07617188 C215.74039686 394.90508107 199.80709729 397.59197252 184.93359375 407.38671875 C170.67176047 417.9916717 163.56249315 433.12286373 160.93359375 450.38671875 C160.27455157 455.323384 159.65177272 460.26477057 159.11083984 465.21582031 C157.43391837 479.54944776 157.43391837 479.54944776 151.99609375 484.26171875 C146.14466974 488.32189051 142.02714531 489.18326323 134.93359375 488.38671875 C127.81944785 486.72720479 123.62028285 481.07512982 118.984375 475.8203125 C104.19947736 459.06797191 89.60529391 447.79184019 66.43359375 446.13671875 C49.28743829 446.5008263 34.92273942 453.29392052 22.93359375 465.38671875 C21.6765029 466.63223919 20.41862993 467.87697054 19.16015625 469.12109375 C16.54624134 471.71447143 13.94303229 474.3177893 11.3515625 476.93359375 C10.76721436 477.52309814 10.18286621 478.11260254 9.58081055 478.7199707 C8.10037988 480.21795502 6.62597342 481.72188726 5.15234375 483.2265625 C1.14298542 487.13003989 -2.472478 488.57279019 -8.00390625 488.82421875 C-14.27905667 488.61661979 -17.96592516 486.5439696 -22.37890625 482.01171875 C-25.4670956 477.20786866 -26.35342636 472.26953345 -26.99609375 466.66015625 C-27.15207031 465.38011719 -27.30804688 464.10007812 -27.46875 462.78125 C-27.78363131 460.12577252 -28.08839608 457.46948646 -28.390625 454.8125 C-30.55899724 437.20108645 -36.37655162 421.03425268 -50.4140625 409.44921875 C-58.32957966 403.62861659 -67.30254123 398.99297381 -77.06640625 397.38671875 C-77.87722656 397.24105469 -78.68804687 397.09539062 -79.5234375 396.9453125 C-91.37337649 395.37084508 -103.40761959 398.22775605 -115.00390625 400.57421875 C-122.45644461 401.93348675 -130.74794188 403.18531804 -137.62890625 399.38671875 C-142.21411715 395.93569321 -144.14477265 391.8777551 -145.58203125 386.43359375 C-146.6655205 376.97112094 -139.14871395 367.07118975 -134.671875 359.13671875 C-125.54851333 342.79429528 -121.6035694 327.6686188 -125.9609375 309.01171875 C-130.9456599 292.6660566 -140.41495046 280.89845041 -155.28417969 272.58837891 C-158.60699059 270.88958322 -161.9510291 269.24945722 -165.31640625 267.63671875 C-185.41668715 257.8612974 -185.41668715 257.8612974 -189.06640625 252.38671875 C-191.07779572 246.35255035 -191.14397127 239.62166842 -188.37890625 233.88671875 C-184.27249742 229.44735785 -180.07249197 226.72455445 -174.5859375 224.21484375 C-173.3259966 223.62667741 -172.06623682 223.03812294 -170.80664062 222.44921875 C-168.85224249 221.54475224 -166.8961236 220.64456036 -164.9362793 219.75195312 C-147.24789263 211.66429642 -134.42378158 200.76069311 -127.06640625 182.38671875 C-121.25065047 163.24834511 -124.71277978 146.60885087 -133.8984375 129.37109375 C-134.62022876 128.04249846 -135.34290104 126.71438146 -136.06640625 125.38671875 C-137.19137997 123.28547193 -138.31228245 121.1820923 -139.43261719 119.07836914 C-140.13040609 117.77295685 -140.83266427 116.4699206 -141.54003906 115.16967773 C-144.4205464 109.85480471 -145.84681402 105.46739594 -145.06640625 99.38671875 C-143.31635606 94.12705704 -140.84793649 90.34671366 -136.06640625 87.38671875 C-127.32964816 83.58812828 -119.1423747 86.05495037 -110.19140625 87.88671875 C-90.50919868 91.69830699 -72.73987556 92.39681247 -55.06640625 81.38671875 C-51.48404473 78.60887063 -48.24972755 75.61004588 -45.06640625 72.38671875 C-44.50308594 71.8453125 -43.93976563 71.30390625 -43.359375 70.74609375 C-30.9040089 57.73204369 -29.10334609 39.56125264 -27.24316406 22.55688477 C-25.71722669 9.49803807 -25.71722669 9.49803807 -21.3125 4.328125 C-20.41724609 3.64556641 -20.41724609 3.64556641 -19.50390625 2.94921875 C-18.90449219 2.47613281 -18.30507812 2.00304687 -17.6875 1.515625 C-12.77282313 -1.90688492 -5.62415365 -1.66917225 0 0 Z M-2.06640625 35.38671875 C-2.28554687 36.64484375 -2.5046875 37.90296875 -2.73046875 39.19921875 C-7.29175672 64.28999891 -16.29351563 85.76877305 -37.6640625 101.18359375 C-52.48557918 111.07920016 -68.73373805 116.58640578 -86.56640625 116.57421875 C-87.53658691 116.57486328 -88.50676758 116.57550781 -89.50634766 116.57617188 C-97.18066073 116.5201457 -104.51701554 115.82960571 -112.06640625 114.38671875 C-111.8147168 114.88373291 -111.56302734 115.38074707 -111.30371094 115.89282227 C-99.20450574 139.99974004 -94.11214227 163.46057377 -102.1328125 189.90234375 C-103.31709033 193.13858813 -104.62838425 196.25528833 -106.06640625 199.38671875 C-106.55882812 200.46566406 -107.05125 201.54460937 -107.55859375 202.65625 C-111.82732741 211.26520328 -117.30258956 217.70178039 -124.06640625 224.38671875 C-124.72382812 225.05445313 -125.38125 225.7221875 -126.05859375 226.41015625 C-131.91424834 231.96423206 -139.03677202 235.54300669 -146.06640625 239.38671875 C-148.40525028 240.71066846 -150.73603415 242.04786802 -153.06640625 243.38671875 C-150.24554352 245.69405784 -147.30408335 247.32718842 -144.04125977 248.93505859 C-124.75336449 258.53345203 -109.81594848 274.8726767 -102.83349609 295.41235352 C-95.52861445 318.58521569 -96.66208335 341.45878148 -107.06640625 363.38671875 C-107.78716907 364.66048905 -108.51765642 365.92880623 -109.2578125 367.19140625 C-111.23060059 370.06486513 -111.23060059 370.06486513 -111.06640625 372.38671875 C-110.41373779 372.31815674 -109.76106934 372.24959473 -109.08862305 372.17895508 C-83.20010848 369.62147115 -58.08917219 370.64412269 -36.65625 387.26171875 C-35.80160156 387.96296875 -34.94695312 388.66421875 -34.06640625 389.38671875 C-33.20144531 390.08796875 -32.33648437 390.78921875 -31.4453125 391.51171875 C-12.72348485 407.46944094 -5.84513536 428.91882218 -2.06640625 452.38671875 C0.53906946 450.43261197 2.74260807 448.63433872 4.73828125 446.046875 C17.33502533 430.78284881 38.29932223 422.92928805 57.4206543 420.83618164 C83.14447259 418.52959052 105.60090899 427.51943532 125.171875 443.82421875 C128.0765669 446.51937842 130.46590121 449.29423702 132.93359375 452.38671875 C134.43468832 449.63722352 135.27160623 447.27276114 135.7578125 444.18359375 C139.56684901 421.80717881 148.60092798 401.73048827 167.4440918 388.00976562 C180.7486464 378.60418736 196.0075885 371.27369295 212.6015625 371.25390625 C213.66052734 371.25261719 214.71949219 371.25132812 215.81054688 371.25 C216.90302734 371.25386719 217.99550781 371.25773437 219.12109375 371.26171875 C220.19423828 371.25785156 221.26738281 371.25398438 222.37304688 371.25 C229.27986378 371.25835671 236.06806355 371.63426144 242.93359375 372.38671875 C241.52940336 368.82874978 240.00983451 365.34685293 238.42041016 361.86743164 C228.00542234 338.84497178 227.39957601 315.12598605 236.14453125 291.35351562 C245.38781057 268.31395555 263.45204706 255.15294416 284.93359375 244.38671875 C282.00893713 241.25641792 278.66032847 239.59360166 274.87109375 237.69921875 C268.23755377 234.26497402 262.50516939 230.40311959 256.93359375 225.38671875 C256.25039063 224.79632813 255.5671875 224.2059375 254.86328125 223.59765625 C239.51061396 209.44911973 230.75186623 187.30952555 229.8125 166.734375 C229.38456055 147.57779119 235.03320692 131.03326356 243.93359375 114.38671875 C243.17820312 114.53109375 242.4228125 114.67546875 241.64453125 114.82421875 C215.2019499 119.28292099 191.76282789 115.96037136 169.43359375 100.82421875 C167.91960108 99.69693873 166.41847947 98.5520721 164.93359375 97.38671875 C164.25167969 96.86851563 163.56976563 96.3503125 162.8671875 95.81640625 C144.30240728 80.77566454 137.75321961 57.92829866 133.93359375 35.38671875 C130.3778108 38.36196571 127.00185825 41.28093506 123.87109375 44.69921875 C115.77034223 52.89078587 104.75437572 58.73504047 93.93359375 62.38671875 C92.79148437 62.77859375 91.649375 63.17046875 90.47265625 63.57421875 C68.97984901 69.95558832 45.89102808 67.37935323 25.93359375 57.38671875 C19.03116231 53.58800131 13.15289236 49.08416313 7.41796875 43.6953125 C4.33529826 40.83075549 1.14309117 38.10743981 -2.06640625 35.38671875 Z " fill="#000000" transform="translate(190.06640625,0.61328125)"/>
<path d="M0 0 C38.93379467 -1.3282318 74.37876882 10.69483421 103.98535156 36.078125 C104.84128906 36.79871094 105.69722656 37.51929688 106.57910156 38.26171875 C112.81365799 43.65922825 117.9936491 49.52491561 122.98535156 56.078125 C123.39285645 56.60535156 123.80036133 57.13257813 124.22021484 57.67578125 C131.06878008 66.59288197 136.35452263 75.84437578 140.98535156 86.078125 C141.80326172 87.84736328 141.80326172 87.84736328 142.63769531 89.65234375 C154.2764656 116.5725529 157.07588882 149.62605974 149.98535156 178.078125 C149.6953125 179.25713379 149.6953125 179.25713379 149.39941406 180.45996094 C145.08772337 197.39399305 138.25180301 213.85175656 127.98535156 228.078125 C127.61249023 228.59616699 127.23962891 229.11420898 126.85546875 229.64794922 C115.24002786 245.58552259 101.57826328 258.44746706 84.98535156 269.078125 C84.39963379 269.46049316 83.81391602 269.84286133 83.21044922 270.23681641 C52.09139657 290.30220731 11.88998373 295.26611761 -23.89697266 287.5625 C-35.95808296 284.80376783 -47.04185863 280.77945084 -58.01464844 275.078125 C-58.99498047 274.57539062 -58.99498047 274.57539062 -59.99511719 274.0625 C-94.17603308 256.34395946 -119.42333731 225.43438352 -131.12646484 188.82055664 C-132.19796287 185.26542948 -133.13632505 181.68543627 -134.01464844 178.078125 C-134.17980957 177.4068457 -134.3449707 176.73556641 -134.51513672 176.04394531 C-139.23796212 155.83396442 -138.84888311 133.22627187 -134.01464844 113.078125 C-133.84304199 112.335625 -133.67143555 111.593125 -133.49462891 110.828125 C-130.91219133 99.89834452 -127.14872991 90.04817999 -122.01464844 80.078125 C-121.16193359 78.37849609 -121.16193359 78.37849609 -120.29199219 76.64453125 C-103.37240561 43.92305288 -72.89918737 18.24127343 -37.80224609 6.99414062 C-25.53690979 3.3013512 -12.81354533 0.49688979 0 0 Z M-80.38183594 64.734375 C-82.66262889 67.46825477 -84.85726905 70.24605954 -87.01464844 73.078125 C-87.62050781 73.86832031 -88.22636719 74.65851563 -88.85058594 75.47265625 C-107.46212918 100.86351727 -114.87113886 132.56958787 -110.28808594 163.703125 C-104.80660868 195.10638194 -88.0931847 223.5969356 -62.13964844 242.390625 C-46.12531044 253.48461567 -27.5256588 261.84921819 -8.01464844 264.078125 C-7.23605469 264.19800781 -6.45746094 264.31789063 -5.65527344 264.44140625 C24.85798153 268.3740152 56.42648943 258.68142964 80.73535156 240.265625 C104.86432143 221.25144979 122.21180571 193.62975557 126.51269531 162.9140625 C130.13171871 130.59693895 123.11517603 98.29186328 102.69506836 72.57836914 C101.46913427 71.06958131 100.22755111 69.57354982 98.98535156 68.078125 C98.31632813 67.25570312 97.64730469 66.43328125 96.95800781 65.5859375 C78.51307011 43.7839457 49.95639785 29.71807496 21.76269531 26.359375 C-16.236664 23.53005352 -54.52441163 35.71944343 -80.38183594 64.734375 Z " fill="#000000" transform="translate(248.0146484375,98.921875)"/>
</svg>
